<?xml version="1.0" standalone="no"?>
<!DOCTYPE svg PUBLIC "-//W3C//DTD SVG 20010904//EN"
 "http://www.w3.org/TR/2001/REC-SVG-20010904/DTD/svg10.dtd">
<svg version="1.0" xmlns="http://www.w3.org/2000/svg"
 width="300.000000pt" height="169.000000pt" viewBox="0 0 300.000000 169.000000"
 preserveAspectRatio="xMidYMid meet">
<metadata>
Created by potrace 1.10, written by Peter Selinger 2001-2011
</metadata>
<g transform="translate(0.000000,169.000000) scale(0.100000,-0.100000)"
fill="#000000" stroke="none">
<path d="M930 1115 c0 -597 2 -614 70 -752 71 -144 195 -256 338 -305 94 -32
230 -32 324 0 187 64 336 232 388 438 19 72 20 112 20 613 l0 536 -570 0 -570
0 0 -530z m445 475 c-10 -11 -23 -20 -30 -20 -6 0 -21 -9 -33 -20 -30 -28 -29
-74 3 -106 41 -41 9 -70 -66 -58 -31 5 -41 1 -72 -26 -21 -18 -41 -48 -47 -68
-24 -86 -42 -240 -37 -329 l5 -93 -32 0 c-42 0 -78 -26 -74 -53 2 -14 21 -30
57 -48 72 -36 94 -60 95 -104 1 -19 7 -40 15 -45 12 -7 12 -12 -2 -34 -21 -31
-22 -60 -2 -76 22 -19 19 -23 -33 -47 -27 -12 -54 -34 -62 -48 -24 -44 -41
-30 -71 60 -23 69 -23 77 -27 589 -1 286 -1 525 2 533 4 10 49 13 217 13 211
0 212 0 194 -20z m662 -490 c3 -476 2 -510 -17 -584 -11 -44 -27 -90 -36 -104
l-16 -24 -36 37 c-20 20 -49 39 -65 42 -30 6 -45 22 -30 32 18 12 23 44 12 79
-9 27 -9 36 1 42 7 4 11 19 8 33 -8 41 22 89 75 118 66 36 82 54 32 35 -92
-33 -115 -46 -115 -66 0 -21 -15 -27 -25 -10 -4 6 -18 4 -37 -6 -28 -15 -29
-17 -14 -26 12 -7 21 -7 29 1 13 13 47 15 47 2 0 -5 -13 -14 -30 -20 -17 -5
-30 -17 -30 -26 0 -9 5 -13 10 -10 6 4 8 11 5 16 -9 13 19 11 33 -3 17 -17 15
-29 -3 -22 -10 4 -15 0 -15 -14 0 -12 -4 -24 -10 -27 -5 -3 -10 1 -10 9 0 9
-4 16 -9 16 -5 0 -11 12 -13 28 -2 19 -8 26 -20 24 -9 -1 -19 2 -23 7 -8 13
-124 -60 -125 -78 0 -11 -5 -10 -20 4 -18 16 -20 16 -20 2 0 -20 -16 -23 -23
-4 -3 7 -6 5 -6 -5 -1 -10 -6 -18 -12 -18 -6 0 -17 -7 -26 -16 -12 -11 -13
-18 -4 -27 8 -8 11 -8 11 1 0 7 7 12 15 12 8 0 15 5 15 11 0 6 7 9 14 6 9 -4
17 2 21 14 8 25 21 17 45 -31 26 -50 25 -58 -2 -34 -17 15 -19 16 -12 2 12
-22 157 -119 164 -109 12 17 56 41 77 41 35 0 95 -58 91 -89 -1 -14 1 -31 5
-37 3 -6 1 -19 -7 -29 -9 -13 -19 -15 -37 -9 -13 4 -28 7 -32 6 -5 -1 -27 10
-50 26 -23 15 -47 31 -53 35 -7 4 -23 -2 -37 -13 -28 -22 -61 -27 -54 -7 2 6
11 11 19 9 14 -2 46 25 37 32 -2 1 -26 17 -53 35 -28 18 -65 44 -83 58 -18 14
-33 20 -33 14 0 -28 -20 3 -21 32 l-2 32 -4 -30 c-7 -53 -43 -103 -43 -60 0 8
-4 15 -10 15 -5 0 -11 17 -11 38 -2 33 -2 34 -6 7 -5 -31 -23 -60 -23 -36 0 6
-30 -9 -67 -35 -100 -70 -105 -75 -92 -91 7 -7 18 -12 27 -11 8 2 17 -3 19 -9
7 -20 -26 -15 -54 7 -24 19 -28 19 -47 5 -28 -20 -100 -58 -106 -57 -3 1 -14
-1 -24 -4 -22 -7 -50 22 -39 40 4 6 6 23 5 37 -2 19 6 34 33 57 43 38 74 40
112 8 l27 -24 73 50 c41 27 77 47 81 44 4 -2 9 4 9 15 2 17 -1 18 -13 9 -22
-19 -18 8 7 50 21 34 21 34 33 12 7 -13 15 -20 19 -16 3 4 13 1 21 -5 23 -20
29 6 6 29 -11 11 -20 16 -20 10 0 -5 -4 -10 -10 -10 -5 0 -10 7 -10 17 0 14
-2 14 -20 -2 -11 -10 -20 -13 -20 -7 0 17 -118 94 -125 82 -4 -6 -14 -9 -23
-8 -12 2 -18 -5 -20 -24 -2 -16 -8 -28 -13 -28 -5 0 -9 -8 -10 -17 -1 -12 -4
-9 -8 7 -5 15 -14 24 -25 24 -23 -2 -15 18 13 32 l22 12 -27 6 c-20 5 -24 10
-15 19 9 9 16 9 32 -1 13 -8 25 -9 36 -3 14 7 12 11 -15 25 -19 10 -33 12 -37
6 -10 -16 -25 -11 -25 9 0 17 -48 44 -135 76 -19 7 -19 8 4 18 18 8 34 7 71
-6 26 -9 50 -17 53 -17 2 0 -1 30 -8 68 -24 131 -19 220 22 379 17 67 33 88
76 98 30 8 34 -2 17 -51 -16 -46 16 -132 59 -161 19 -13 40 -23 47 -23 20 0
43 40 53 93 10 55 -2 71 -46 62 -20 -5 -24 -4 -14 3 12 8 11 11 -5 15 -10 2
-5 3 11 1 28 -3 29 -3 11 11 -11 8 -35 15 -53 15 -35 0 -45 17 -15 26 9 3 25
10 34 15 41 22 111 2 123 -35 4 -11 9 -25 10 -31 7 -19 17 -60 22 -87 6 -32
23 -38 23 -9 0 49 25 65 54 35 9 -8 16 -12 16 -7 0 15 -23 33 -42 33 -16 0
-17 3 -8 20 6 11 8 20 4 20 -4 0 1 9 11 20 10 11 14 20 9 20 -5 1 2 7 16 15
29 17 73 19 98 6 9 -5 25 -12 35 -15 32 -10 20 -32 -15 -28 -20 2 -41 -3 -53
-12 -19 -15 -19 -16 10 -12 17 2 21 1 11 -1 -16 -4 -17 -7 -5 -15 10 -7 6 -8
-14 -3 -44 9 -56 -7 -46 -61 5 -26 6 -51 2 -58 -3 -6 -3 -8 2 -4 4 4 15 -2 24
-14 19 -23 43 -20 85 13 33 26 60 117 46 154 -17 46 -13 58 18 50 42 -10 58
-31 75 -98 39 -149 44 -243 21 -399 -4 -27 -4 -48 -2 -48 3 0 23 7 44 16 23 9
50 13 68 10 21 -5 27 -3 20 4 -6 6 -29 12 -50 14 l-39 2 3 80 c4 95 -13 269
-34 337 -24 82 -73 123 -130 111 -33 -6 -84 10 -84 27 0 6 11 22 25 35 15 14
25 34 25 50 0 28 -34 74 -55 74 -7 0 -20 9 -30 20 l-18 20 214 -2 214 -3 2
-505z m-522 490 c3 -5 24 -10 46 -10 27 0 42 -6 50 -19 7 -10 19 -16 28 -14
28 7 54 -31 46 -66 -4 -17 -11 -31 -17 -31 -6 0 -19 -11 -30 -25 -11 -14 -25
-22 -31 -18 -9 5 -9 3 0 -8 10 -12 -5 -14 -107 -14 -104 0 -117 2 -107 15 6 8
7 12 3 8 -5 -4 -19 4 -32 17 -13 14 -27 25 -32 25 -6 0 -13 12 -16 26 -9 33
18 78 43 71 10 -2 23 4 30 14 8 13 23 19 50 19 22 0 43 5 46 10 3 6 10 10 15
10 5 0 12 -4 15 -10z m34 -219 c20 -13 -40 -24 -80 -16 -40 9 -20 25 31 25 19
0 41 -4 49 -9z m-184 -111 c21 0 25 -71 4 -78 -5 -2 -9 -10 -9 -18 0 -18 -5
-18 -34 1 -31 21 -56 103 -35 116 9 5 22 3 36 -6 12 -8 29 -15 38 -15z m346
-32 c-7 -24 -24 -53 -39 -65 l-26 -22 -17 36 c-22 47 -13 70 37 93 50 22 61
12 45 -42z m-369 -630 c30 -33 9 -40 -32 -11 -22 16 -40 36 -40 47 0 17 1 18
28 1 15 -9 35 -26 44 -37z m388 27 c0 -8 -4 -15 -9 -15 -5 0 -23 -11 -39 -25
-43 -36 -56 -11 -13 27 34 31 61 36 61 13z m-470 -46 c0 -4 10 -9 23 -11 16
-2 23 -11 25 -30 2 -16 -1 -28 -7 -28 -6 0 -11 5 -11 10 0 6 -10 10 -21 10
-17 0 -20 -4 -15 -22 3 -13 6 -27 6 -31 0 -5 6 -5 13 -2 6 4 1 -2 -13 -14 -14
-11 -26 -16 -28 -11 -2 6 -10 10 -18 10 -8 0 -14 5 -14 11 0 5 4 8 9 5 10 -7
20 23 14 42 -3 6 -13 12 -23 12 -10 0 -20 -6 -23 -12 -3 -9 -7 -7 -12 5 -12
28 2 50 29 45 20 -4 25 0 31 26 6 30 7 30 20 12 8 -11 15 -23 15 -27z m520 0
c0 -12 7 -15 25 -11 28 5 42 -16 30 -45 -5 -12 -9 -14 -12 -5 -6 17 -40 15
-47 -3 -3 -8 1 -21 9 -29 19 -19 19 -26 0 -26 -8 0 -15 -5 -15 -10 0 -6 -9 -5
-22 2 -13 7 -25 14 -27 15 -2 1 4 9 13 18 9 9 16 23 16 31 0 17 -36 19 -43 2
-4 -10 -8 -10 -16 1 -13 20 4 51 28 51 10 0 23 12 30 27 10 22 14 24 22 12 5
-7 9 -21 9 -30z m-315 -139 c3 -5 19 -10 35 -10 16 0 32 5 35 10 11 18 36 10
96 -31 52 -37 57 -43 42 -54 -10 -8 -14 -19 -10 -30 6 -14 15 -16 52 -11 37 6
54 3 96 -18 28 -14 57 -26 66 -26 24 0 -14 -52 -72 -97 -64 -51 -120 -77 -215
-100 -57 -15 -175 -6 -240 17 -97 35 -231 131 -230 165 1 5 27 23 58 38 49 25
65 28 105 22 38 -6 48 -4 53 9 3 9 1 23 -6 31 -7 8 -8 15 -3 15 5 0 18 8 29
18 59 54 97 72 109 52z"/>
<path d="M1179 1255 c-9 -8 1 -45 12 -45 5 0 9 -9 9 -20 0 -11 3 -20 8 -20 4
0 22 -14 41 -30 49 -44 50 -29 1 19 -36 36 -41 45 -36 74 6 30 5 31 -5 7 l-12
-25 -6 23 c-3 13 -9 21 -12 17z"/>
<path d="M1785 1233 c6 -29 2 -38 -35 -74 -49 -48 -48 -63 1 -19 19 16 37 30
42 30 4 0 7 9 7 20 0 11 4 20 9 20 12 0 21 39 10 46 -5 3 -9 -5 -9 -18 l-1
-23 -15 25 -15 25 6 -32z"/>
<path d="M1183 1135 c2 -27 9 -33 67 -57 75 -31 80 -32 80 -17 0 5 -4 7 -10 4
-5 -3 -10 1 -10 9 0 9 -6 13 -14 10 -7 -3 -20 2 -29 10 -8 8 -17 12 -21 9 -3
-4 -6 2 -7 13 0 10 -3 13 -6 7 -8 -22 -21 -14 -15 10 5 19 3 20 -10 9 -14 -11
-17 -10 -21 5 -3 10 -5 5 -4 -12z"/>
<path d="M1811 1146 c-1 -16 -3 -17 -17 -5 -15 12 -16 11 -10 -9 8 -23 -8 -32
-17 -9 -3 7 -6 4 -6 -6 -1 -10 -5 -15 -11 -12 -5 3 -10 1 -10 -5 0 -6 -4 -8
-10 -5 -5 3 -10 1 -10 -5 0 -7 -7 -10 -15 -6 -9 3 -15 0 -15 -10 0 -8 -4 -12
-10 -9 -5 3 -10 1 -10 -5 0 -13 22 -7 98 26 l52 23 -1 -42 c0 -23 -3 -36 -6
-28 -5 11 -7 11 -14 0 -6 -10 -10 -7 -18 11 l-10 25 -1 -25 c-1 -23 -2 -23
-10 -5 -8 18 -9 18 -10 -5 -1 -24 -1 -24 -15 -6 -15 20 -15 20 -16 0 0 -18 -1
-18 -9 1 -8 19 -9 19 -9 -3 -1 -13 -5 -20 -11 -17 -5 3 -10 1 -10 -4 0 -6 -4
-11 -10 -11 -5 0 -9 23 -7 53 l2 52 -63 3 c-34 2 -61 6 -58 10 3 4 -17 8 -44
8 -27 0 -47 -4 -44 -8 3 -4 -24 -8 -58 -10 l-63 -3 2 -52 c2 -30 -2 -53 -7
-53 -6 0 -10 5 -10 11 0 5 -4 7 -10 4 -6 -3 -10 4 -11 17 0 22 -1 22 -9 3 -8
-19 -9 -19 -9 -1 -1 20 -1 20 -16 0 -14 -18 -14 -18 -15 6 -1 23 -2 23 -10 5
-8 -18 -9 -18 -10 5 l-1 25 -10 -25 c-8 -18 -12 -21 -18 -11 -7 11 -9 11 -14
0 -3 -8 -6 4 -7 26 -1 32 -3 36 -10 20 -7 -16 -9 -12 -10 20 -2 37 -2 38 -10
13 -9 -30 -3 -68 11 -68 4 0 9 -45 11 -99 2 -55 0 -97 -4 -94 -10 5 -10 -33
-2 -76 4 -19 12 -31 23 -31 10 0 12 3 5 8 -17 11 -28 82 -13 82 9 0 10 23 7
84 -6 88 -4 98 15 90 7 -2 11 -25 11 -57 l-2 -52 7 50 c7 54 5 53 81 41 14 -2
28 -5 33 -5 4 -1 7 -10 7 -21 0 -18 7 -20 70 -20 l70 0 0 80 c0 73 2 80 20 80
18 0 20 -7 20 -80 l0 -80 70 0 c63 0 70 2 70 20 0 19 10 24 38 21 6 -1 12 2
12 6 0 5 17 9 38 9 20 0 44 3 52 5 13 3 14 -9 11 -83 -2 -60 0 -88 8 -88 6 0
10 3 10 8 -6 34 3 212 10 208 11 -7 22 34 14 48 -4 5 -10 1 -13 -10 -6 -15
-10 -9 -18 26 -5 25 -10 37 -11 26z m-371 -116 c0 -38 -2 -40 -30 -40 -16 0
-30 4 -30 10 0 5 6 7 13 4 10 -3 14 4 14 26 0 22 -4 29 -14 26 -7 -3 -13 -1
-13 4 0 6 14 10 30 10 28 0 30 -2 30 -40z m180 30 c0 -5 -5 -9 -12 -7 -6 1
-12 -9 -12 -23 0 -14 6 -24 12 -22 7 1 12 -2 12 -8 0 -5 -13 -10 -30 -10 -28
0 -30 2 -30 40 0 38 2 40 30 40 17 0 30 -4 30 -10z"/>
<path d="M1274 934 c-5 -26 -9 -32 -16 -22 -6 9 -7 6 -3 -10 4 -13 1 -30 -6
-39 -12 -14 -41 -86 -36 -88 1 -1 15 -9 30 -19 16 -10 32 -15 35 -11 11 11 9
69 -3 78 -11 8 31 46 52 47 6 0 14 6 16 13 3 6 4 -6 3 -28 -2 -46 16 -71 82
-117 59 -41 83 -41 139 -3 71 48 89 73 87 120 -1 22 0 34 3 28 2 -7 10 -13 16
-13 20 -1 63 -39 52 -47 -14 -11 -17 -53 -4 -69 9 -11 15 -10 37 3 15 9 28 17
29 18 5 2 -24 74 -36 88 -7 9 -10 26 -7 39 3 13 3 16 -1 8 -4 -10 -10 -2 -19
25 l-12 40 4 -50 c4 -50 4 -50 -10 -20 -10 20 -15 24 -16 13 0 -26 -18 -22
-23 5 l-4 22 -2 -22 c-1 -22 -5 -23 -71 -23 l-70 0 0 -90 c0 -83 -1 -90 -20
-90 -19 0 -20 7 -20 90 l0 90 -69 0 c-64 0 -70 2 -74 23 l-4 22 -2 -22 c0 -13
-6 -23 -12 -23 -6 0 -8 12 -5 33 6 30 5 29 -9 -7 -22 -57 -29 -58 -22 -3 8 55
1 63 -9 11z m157 -74 c6 0 9 -17 7 -37 -3 -33 -7 -38 -30 -41 -16 -2 -28 1
-28 7 0 6 6 11 13 11 6 0 12 11 12 25 0 14 -6 25 -13 25 -7 0 -10 5 -7 11 4 6
14 8 22 5 8 -3 19 -6 24 -6z m184 0 c3 -5 0 -10 -7 -10 -7 0 -13 -11 -13 -25
0 -14 6 -25 13 -25 6 0 12 -5 12 -11 0 -6 -12 -9 -27 -7 -24 3 -28 8 -31 40
-2 28 1 37 15 41 29 8 32 7 38 -3z"/>
<path d="M1340 750 c0 -4 -7 -7 -16 -6 -35 3 -22 -22 29 -56 35 -24 62 -35 80
-33 15 2 27 -1 27 -6 0 -5 6 -9 14 -9 8 0 17 -6 20 -12 3 -9 8 -8 16 5 6 9 15
15 21 12 5 -4 9 -2 9 3 0 5 12 8 26 6 17 -2 44 10 78 33 52 35 66 59 34 57
-10 -1 -18 2 -18 6 0 13 -44 5 -69 -12 -19 -13 -21 -20 -12 -36 15 -29 14 -47
-1 -34 -19 16 -27 15 -55 -3 -17 -12 -28 -14 -32 -6 -10 15 -53 20 -68 9 -16
-13 -17 5 -2 34 9 16 7 23 -12 36 -25 17 -69 25 -69 12z"/>
<path d="M1105 405 c-19 -19 -25 -32 -21 -48 3 -12 6 -25 6 -29 0 -15 27 -8
51 13 13 11 37 28 53 36 l30 16 -23 18 c-32 26 -63 24 -96 -6z"/>
<path d="M1796 411 c-17 -19 -17 -20 11 -34 15 -8 39 -25 52 -36 41 -36 58
-25 52 34 -4 48 -83 72 -115 36z"/>
<path d="M1432 1553 c-21 -4 -23 -8 -17 -44 6 -37 5 -39 -17 -36 -16 3 -24 12
-28 32 -5 26 -6 27 -19 11 -19 -23 -2 -51 28 -50 14 0 20 -4 17 -13 -8 -19 4
-16 20 4 7 10 16 15 20 11 4 -4 1 -16 -7 -25 -13 -16 -12 -17 4 -4 9 7 17 21
18 30 0 12 2 11 8 -4 5 -12 4 -23 -3 -28 -7 -6 -6 -7 4 -4 8 2 14 13 12 24 -2
16 3 20 28 20 25 0 30 -4 28 -20 -2 -11 4 -22 12 -24 10 -3 11 -2 4 4 -7 5 -8
16 -3 28 6 15 8 16 8 4 1 -9 9 -23 19 -30 15 -13 16 -12 3 4 -8 9 -11 21 -7
25 4 4 13 -1 20 -11 16 -20 28 -23 20 -4 -3 9 3 13 17 13 30 -1 47 27 28 50
-13 16 -14 15 -19 -11 -3 -17 -12 -29 -23 -31 -23 -3 -33 22 -17 42 16 19 5
30 -39 39 -33 7 -34 7 -29 -24 3 -19 -1 -36 -9 -42 -21 -18 -40 5 -35 41 4 31
3 32 -46 23z"/>
</g>
</svg>
