<?xml version="1.0" standalone="no"?>
<!DOCTYPE svg PUBLIC "-//W3C//DTD SVG 20010904//EN"
 "http://www.w3.org/TR/2001/REC-SVG-20010904/DTD/svg10.dtd">
<svg version="1.0" xmlns="http://www.w3.org/2000/svg"
 width="300.000000pt" height="338.000000pt" viewBox="0 0 300.000000 338.000000"
 preserveAspectRatio="xMidYMid meet">
<metadata>
Created by potrace 1.10, written by Peter Selinger 2001-2011
</metadata>
<g transform="translate(0.000000,338.000000) scale(0.100000,-0.100000)"
fill="#000000" stroke="none">
<path d="M310 2265 c0 -585 4 -953 11 -1010 36 -308 177 -566 419 -767 97 -80
236 -160 325 -188 22 -7 55 -19 73 -26 18 -8 42 -14 53 -14 14 0 19 -5 16 -14
-4 -11 6 -15 41 -18 26 -2 49 -1 52 3 3 3 34 2 70 -3 59 -9 204 -5 305 8 85
11 247 64 338 111 62 33 74 39 122 73 164 113 314 284 396 450 53 108 84 208
104 342 12 81 15 258 15 1035 l0 938 -1170 0 -1170 0 0 -920z m2310 875 c8
-14 10 -296 9 -908 -1 -793 -7 -1054 -26 -1102 -4 -8 -7 -17 -8 -20 -33 -120
-80 -230 -138 -325 -38 -60 -143 -186 -168 -200 -10 -5 -18 -14 -19 -20 -3
-15 -151 -134 -158 -127 -2 2 -11 -5 -20 -15 -17 -18 -98 -60 -162 -83 -19 -8
-39 -17 -45 -21 -9 -7 -87 -31 -110 -34 -5 -1 -17 -4 -25 -7 -27 -11 -75 -21
-85 -18 -5 1 -14 2 -20 1 -46 -6 -284 -7 -280 -1 5 9 -42 6 -65 -4 -24 -10
-72 1 -124 28 -27 14 -60 26 -73 26 -13 0 -26 6 -29 13 -2 7 -16 14 -30 15
-25 2 -174 76 -184 92 -3 4 -15 10 -28 14 -12 4 -22 11 -22 16 0 5 -12 16 -27
24 -55 28 -222 205 -251 263 -9 18 -19 33 -23 33 -3 0 -12 15 -20 33 -7 17
-15 34 -18 37 -12 10 -42 70 -36 70 4 0 -2 15 -12 33 -22 37 -46 112 -69 212
-14 60 -16 200 -21 1016 -4 861 -3 948 12 962 14 15 120 17 1140 17 1113 0
1125 -1 1135 -20z"/>
<path d="M360 3123 c0 -2 0 -262 0 -578 l0 -576 475 -2 475 -2 0 580 0 580
-475 0 c-261 0 -475 -1 -475 -2z m914 -39 c9 -24 7 -1072 -2 -1078 -5 -3 -204
-6 -442 -6 -326 -1 -435 1 -440 10 -11 18 -10 1051 1 1072 9 17 36 18 443 18
386 0 435 -2 440 -16z"/>
<path d="M676 2870 c-111 -34 -105 -170 9 -170 13 0 31 7 40 16 8 9 22 13 30
10 25 -9 17 -65 -16 -118 -35 -54 -34 -76 7 -137 17 -26 23 -47 20 -72 -4 -39
-19 -44 -56 -16 -16 12 -32 16 -50 12 -43 -11 -60 -34 -60 -82 0 -52 22 -77
80 -93 50 -14 95 -9 284 30 53 11 92 39 109 80 12 31 9 417 -4 441 -20 38 -71
61 -187 85 -124 25 -160 27 -206 14z m163 -35 c36 -8 86 -17 111 -20 28 -3 57
-15 75 -31 l30 -26 3 -186 c4 -210 -3 -254 -46 -276 -15 -8 -76 -24 -137 -36
-177 -36 -255 -18 -255 56 0 59 64 74 100 24 27 -37 44 -38 58 -2 29 74 24
110 -20 159 -28 30 -26 66 6 103 34 41 39 65 24 125 -11 43 -16 50 -38 50 -18
0 -26 -6 -28 -22 -4 -26 -51 -40 -81 -23 -15 8 -21 21 -21 45 0 69 81 91 219
60z"/>
<path d="M857 2764 c-4 -4 -4 -37 -1 -73 6 -64 -1 -94 -28 -134 -10 -13 -10
-19 -1 -25 24 -15 35 -66 28 -134 l-6 -68 48 0 c87 0 93 15 93 220 0 158 -1
161 -25 185 -13 14 -32 25 -42 25 -10 0 -27 3 -38 6 -11 3 -24 2 -28 -2z m102
-39 c17 -17 28 -222 17 -298 -9 -60 -24 -77 -70 -80 l-39 -2 2 78 c2 58 -2 85
-14 103 -14 22 -14 26 1 49 12 19 15 42 12 101 l-3 76 40 -7 c22 -3 47 -12 54
-20z"/>
<path d="M1650 2545 l0 -580 480 0 480 0 -2 578 -3 577 -478 3 -477 2 0 -580z
m920 536 c12 -23 14 -1049 2 -1068 -12 -19 -881 -20 -893 -2 -5 8 -9 249 -9
536 l0 522 22 15 c19 14 79 16 445 16 407 0 423 -1 433 -19z"/>
<path d="M2080 2858 c-194 -34 -200 -44 -200 -308 0 -199 6 -236 46 -272 11
-9 30 -19 44 -21 14 -3 71 -15 127 -26 123 -25 161 -26 208 -4 72 34 80 125
14 158 -37 19 -45 19 -79 -5 -33 -23 -42 -16 -43 34 -1 21 9 45 26 68 34 44
34 75 0 124 -37 54 -36 146 1 115 51 -42 124 -21 140 41 7 29 5 40 -10 61 -10
14 -26 30 -35 35 -32 21 -124 21 -239 0z m225 -24 c35 -16 47 -46 34 -82 -16
-43 -99 -39 -99 5 0 21 -4 24 -27 21 -25 -3 -29 -9 -40 -57 -13 -61 -11 -70
30 -128 33 -47 32 -58 -15 -116 -24 -30 -27 -74 -8 -131 14 -44 43 -48 62 -8
9 19 22 28 44 30 59 6 78 -63 30 -105 -35 -30 -98 -30 -232 -3 -117 24 -151
37 -164 61 -6 10 -10 113 -10 231 l0 213 34 23 c20 13 61 27 98 33 34 5 79 13
98 18 56 14 129 12 165 -5z"/>
<path d="M2047 2760 c-68 -13 -72 -22 -75 -193 -5 -220 5 -243 104 -235 36 3
39 5 34 28 -3 14 -5 51 -4 82 0 45 5 63 22 81 l22 23 -22 22 c-20 19 -23 33
-23 109 0 49 -4 87 -10 88 -5 2 -27 -1 -48 -5z m45 -86 c-4 -66 -1 -80 17
-105 12 -16 18 -29 13 -29 -20 0 -34 -61 -30 -131 l4 -71 -41 6 c-22 4 -46 14
-52 23 -14 19 -19 329 -5 350 9 15 50 32 77 32 19 1 20 -4 17 -75z"/>
<path d="M357 1622 c-1 -4 0 -101 4 -217 6 -206 7 -212 42 -325 21 -63 46
-130 57 -148 11 -18 20 -37 20 -42 0 -8 51 -96 72 -125 60 -81 179 -206 244
-255 108 -82 243 -149 375 -185 52 -15 104 -30 117 -35 l22 -10 0 676 0 675
-475 -2 c-261 0 -476 -4 -478 -7z m911 -30 c10 -7 12 -140 10 -633 l-3 -624
-25 1 c-39 2 -132 30 -196 59 -161 74 -161 74 -218 123 -8 6 -18 12 -21 12 -3
0 -13 8 -24 17 -10 10 -40 37 -65 61 -26 24 -72 77 -103 118 -30 41 -60 74
-66 74 -6 0 -7 3 -4 6 4 4 -3 20 -15 36 -59 83 -125 261 -139 373 -16 135 -22
340 -10 362 11 21 15 22 438 22 236 1 434 -3 441 -7z"/>
<path d="M675 1373 c-37 -10 -62 -33 -73 -70 -10 -31 -9 -42 6 -68 15 -24 25
-31 58 -33 28 -2 45 2 54 13 21 25 37 17 43 -21 5 -30 1 -45 -24 -80 -25 -36
-29 -50 -23 -79 3 -19 14 -46 25 -58 22 -30 33 -69 24 -96 -6 -20 -8 -20 -35
-6 -31 16 -88 20 -106 7 -22 -15 -37 -81 -26 -111 7 -19 101 -61 137 -61 17 0
59 6 95 14 36 8 90 20 121 26 67 13 115 52 124 101 3 19 5 120 3 225 -3 175
-5 194 -23 214 -22 25 -75 50 -120 57 -16 3 -57 11 -90 19 -59 13 -131 16
-170 7z m205 -42 c105 -23 138 -34 152 -51 16 -20 18 -45 18 -235 l0 -213 -30
-26 c-17 -14 -47 -28 -68 -31 -20 -3 -71 -12 -112 -20 -101 -20 -149 -19 -187
5 -27 16 -33 26 -33 54 0 42 19 58 62 54 25 -2 34 -8 36 -24 4 -25 36 -38 51
-20 15 18 30 94 23 119 -3 12 -13 30 -22 39 -9 10 -23 30 -30 43 -12 23 -11
28 8 53 50 61 55 88 30 170 -12 40 -42 43 -60 5 -25 -53 -98 -38 -98 20 0 43
10 56 56 72 52 19 49 19 204 -14z"/>
<path d="M865 1262 c-20 -3 -20 -6 -11 -61 7 -47 6 -67 -6 -97 -8 -22 -20 -38
-26 -37 -18 4 -14 -11 11 -43 19 -24 22 -41 22 -110 0 -45 2 -85 5 -88 3 -3
28 1 55 8 35 9 54 19 62 37 17 32 18 318 1 354 -13 28 -64 45 -113 37z m92
-38 c9 -12 13 -60 14 -153 2 -204 1 -207 -49 -220 -60 -17 -59 -18 -54 64 4
60 1 80 -13 101 -16 25 -16 28 0 59 14 25 17 47 13 105 l-5 72 40 -5 c23 -3
47 -14 54 -23z"/>
<path d="M1650 958 c0 -368 3 -668 6 -668 3 0 51 12 107 26 100 25 263 95 322
139 17 12 35 24 42 26 7 2 51 39 98 83 173 158 268 308 338 532 27 86 47 272
47 441 l0 93 -480 -2 -480 -3 0 -667z m914 626 c36 -35 -3 -491 -45 -538 -5
-6 -9 -17 -9 -25 0 -19 -45 -110 -83 -168 -15 -24 -27 -47 -27 -52 0 -5 -7
-11 -15 -15 -11 -4 -15 1 -15 17 0 40 -23 74 -58 87 -28 10 -38 9 -71 -9 l-39
-20 -6 25 c-8 31 0 59 28 99 31 43 31 70 0 122 -41 71 -30 150 16 108 45 -41
114 -13 126 51 7 36 -18 78 -59 101 -27 15 -118 16 -172 2 -22 -6 -51 -12 -65
-15 -104 -19 -131 -29 -157 -56 l-28 -29 -3 -207 c-2 -182 0 -211 15 -241 22
-41 93 -81 145 -81 20 0 62 -7 93 -15 31 -8 76 -12 102 -9 50 5 113 31 113 46
0 5 5 6 10 3 18 -11 -142 -187 -202 -223 -16 -9 -28 -20 -28 -24 0 -4 -15 -14
-34 -23 -18 -9 -43 -25 -54 -35 -12 -11 -25 -20 -29 -20 -4 0 -33 -13 -64 -30
-31 -16 -91 -39 -134 -50 -43 -12 -87 -26 -98 -32 -47 -25 -47 -18 -47 643 l1
618 22 4 c12 2 210 5 439 6 366 1 418 -1 432 -15z m-262 -245 c52 -21 55 -102
3 -115 -34 -8 -53 1 -65 31 -14 37 -46 33 -58 -7 -25 -82 -20 -109 29 -169 25
-31 21 -52 -17 -92 -29 -31 -35 -88 -15 -140 14 -35 58 -38 63 -4 3 19 9 22
43 22 31 0 42 -5 51 -23 16 -33 6 -61 -30 -84 -34 -21 -99 -21 -206 1 -30 6
-72 13 -92 16 -21 3 -51 17 -68 31 l-30 26 0 215 0 215 24 21 c17 15 63 30
148 49 121 26 166 28 220 7z"/>
<path d="M2004 1252 c-28 -18 -34 -56 -34 -201 0 -82 4 -161 10 -176 10 -27
37 -41 91 -47 l34 -3 0 87 c0 76 3 90 22 109 l21 22 -21 29 c-19 25 -22 42
-20 109 l1 79 -46 0 c-26 0 -52 -4 -58 -8z m88 -79 c-4 -67 -1 -81 16 -103 20
-24 20 -24 0 -51 -17 -23 -20 -39 -16 -103 2 -48 0 -76 -7 -76 -24 0 -79 21
-87 32 -4 7 -8 85 -8 174 0 188 5 201 81 203 l26 1 -5 -77z"/>
<path d="M221 1185 c-1 -20 26 -98 31 -89 2 5 -3 29 -13 54 -10 25 -18 41 -18
35z"/>
</g>
</svg>
